<svg width="22" height="40" viewBox="0 0 22 40" fill="none" xmlns="http://www.w3.org/2000/svg">
<path d="M19.4118 40H11.6471C10.2197 40 9.05884 38.804 9.05884 37.3334V20C9.05884 18.5294 10.2197 17.3334 11.6471 17.3334H19.4118C20.8392 17.3334 22 18.5294 22 20V37.3334C22 38.804 20.8392 40 19.4118 40ZM11.6471 18.6667C10.9334 18.6667 10.353 19.2647 10.353 20V37.3334C10.353 38.0687 10.9334 38.6667 11.6471 38.6667H19.4118C20.1255 38.6667 20.7059 38.0687 20.7059 37.3334V20C20.7059 19.2647 20.1255 18.6667 19.4118 18.6667H11.6471Z" fill="white"/>
<path d="M19.4118 18.6666H11.6471C11.2899 18.6666 11 18.368 11 18V16.402C11 15.4446 11.7551 14.6666 12.6843 14.6666H18.3752C19.3037 14.6666 20.0588 15.4446 20.0588 16.402V18C20.0588 18.368 19.7689 18.6666 19.4118 18.6666ZM12.2941 17.3333H18.7647V16.402C18.7647 16.1806 18.59 16 18.3745 16H12.6836C12.4688 16 12.2941 16.1806 12.2941 16.402V17.3333Z" fill="white"/>
<path d="M16.8236 16.0001H14.2353C13.8781 16.0001 13.5883 15.7014 13.5883 15.3334V11.3334C13.5883 10.9654 13.8781 10.6667 14.2353 10.6667H16.8236C17.1807 10.6667 17.4706 10.9654 17.4706 11.3334V15.3334C17.4706 15.7014 17.1807 16.0001 16.8236 16.0001ZM14.8824 14.6667H16.1765V12.0001H14.8824V14.6667Z" fill="white"/>
<path d="M16.8235 12H11.6471C11.2899 12 11 11.7014 11 11.3334V6.00004C11 5.63204 11.2899 5.33337 11.6471 5.33337H16.8235C18.6075 5.33337 20.0588 6.82871 20.0588 8.66671C20.0588 10.5047 18.6075 12 16.8235 12ZM12.2941 10.6667H16.8235C17.8938 10.6667 18.7647 9.76937 18.7647 8.66671C18.7647 7.56404 17.8938 6.66671 16.8235 6.66671H12.2941V10.6667Z" fill="white"/>
<path d="M11.647 10.6666H9.0588C8.70163 10.6666 8.41174 10.368 8.41174 9.99996V7.33329C8.41174 6.96529 8.70163 6.66663 9.0588 6.66663H11.647C12.0042 6.66663 12.2941 6.96529 12.2941 7.33329V9.99996C12.2941 10.368 12.0042 10.6666 11.647 10.6666ZM9.70586 9.33329H11V7.99996H9.70586V9.33329Z" fill="white"/>
<path d="M16.1765 33.3333H9.7059C9.34872 33.3333 9.05884 33.0347 9.05884 32.6667V24.6667C9.05884 24.2987 9.34872 24 9.7059 24H16.1765C16.5337 24 16.8235 24.2987 16.8235 24.6667V32.6667C16.8235 33.0347 16.5337 33.3333 16.1765 33.3333ZM10.353 32H15.5294V25.3333H10.353V32Z" fill="white"/>
<path d="M21.353 33.3333H18.7647C18.4076 33.3333 18.1177 33.0347 18.1177 32.6667V24.6667C18.1177 24.2987 18.4076 24 18.7647 24H21.353C21.7101 24 22 24.2987 22 24.6667V32.6667C22 33.0347 21.7101 33.3333 21.353 33.3333ZM19.4118 32H20.7059V25.3333H19.4118V32Z" fill="white"/>
<path d="M13.5882 28H9.7059C9.34872 28 9.05884 27.7013 9.05884 27.3333C9.05884 26.9653 9.34872 26.6666 9.7059 26.6666H13.5882C13.9454 26.6666 14.2353 26.9653 14.2353 27.3333C14.2353 27.7013 13.9454 28 13.5882 28Z" fill="white"/>
<path d="M12.2941 30.6666H9.7059C9.34872 30.6666 9.05884 30.3679 9.05884 29.9999C9.05884 29.6319 9.34872 29.3333 9.7059 29.3333H12.2941C12.6513 29.3333 12.9412 29.6319 12.9412 29.9999C12.9412 30.3679 12.6513 30.6666 12.2941 30.6666Z" fill="white"/>
<path d="M1.94118 17.3333C0.870941 17.3333 0 16.436 0 15.3333V2C0 0.897333 0.870941 0 1.94118 0C3.01141 0 3.88235 0.897333 3.88235 2V15.3333C3.88235 16.436 3.01141 17.3333 1.94118 17.3333ZM1.94118 1.33333C1.584 1.33333 1.29412 1.63267 1.29412 2V15.3333C1.29412 15.7007 1.584 16 1.94118 16C2.29835 16 2.58824 15.7007 2.58824 15.3333V2C2.58824 1.63267 2.29835 1.33333 1.94118 1.33333Z" fill="white"/>
<path d="M3.23532 15.3333C2.87814 15.3333 2.58826 15.0347 2.58826 14.6667V2.66667C2.58826 2.29867 2.87814 2 3.23532 2C6.8032 2 9.7059 4.99067 9.7059 8.66667C9.7059 12.3427 6.8032 15.3333 3.23532 15.3333ZM3.88237 3.37467V13.9587C6.43243 13.6293 8.41179 11.3813 8.41179 8.66667C8.41179 5.952 6.43243 3.704 3.88237 3.37467Z" fill="white"/>
</svg>
