<svg xmlns="http://www.w3.org/2000/svg" viewBox="0 0 33.5 41.5"><title>anesthesia</title><rect x="20.75" y="19.75" width="12" height="21" rx="2.4" ry="2.4" fill="none" stroke="#fff" stroke-linecap="round" stroke-linejoin="round" stroke-width="1.5"/><path fill="none" stroke="#fff" stroke-linecap="round" stroke-linejoin="round" stroke-width="1.5" d="M25.75 25.75h7v9h-7zM25.75 16.75h2a3 3 0 0 1 3 3h-8a3 3 0 0 1 3-3zM24.75 12.75h4v4h-4zM19.75 8.75h9a2 2 0 0 1 2 2 2 2 0 0 1-2 2h-9v-4zM13.75 4.75a6 6 0 0 1 6 6 6 6 0 0 1-6 6v-12z"/><rect x="10.75" y="2.75" width="3" height="16" rx="1.5" ry="1.5" fill="none" stroke="#fff" stroke-linecap="round" stroke-linejoin="round" stroke-width="1.5"/><path d="M7.75 11.58a3 3 0 0 1-4-2.83 2.68 2.68 0 0 1 .19-1 3.5 3.5 0 1 1 3.81-3.5 3.3 3.3 0 0 1-.38 1.56 3.07 3.07 0 0 1 .72.25" fill="none" stroke="#fff" stroke-linecap="round" stroke-linejoin="round" stroke-width="1.5"/></svg>