<svg xmlns="http://www.w3.org/2000/svg" viewBox="0 0 33.5 41.5"><title>anesthesia</title><rect x="20.75" y="19.75" width="12" height="21" rx="2.4" ry="2.4" fill="none" stroke="#fff" stroke-linecap="round" stroke-linejoin="round" stroke-width="1.5"/><rect x="25.75" y="25.75" width="7" height="9" fill="none" stroke="#fff" stroke-linecap="round" stroke-linejoin="round" stroke-width="1.5"/><path d="M25.75,16.75h2a3,3,0,0,1,3,3v0a0,0,0,0,1,0,0h-8a0,0,0,0,1,0,0v0A3,3,0,0,1,25.75,16.75Z" fill="none" stroke="#fff" stroke-linecap="round" stroke-linejoin="round" stroke-width="1.5"/><rect x="24.75" y="12.75" width="4" height="4" fill="none" stroke="#fff" stroke-linecap="round" stroke-linejoin="round" stroke-width="1.5"/><path d="M19.75,8.75h9a2,2,0,0,1,2,2v0a2,2,0,0,1-2,2h-9a0,0,0,0,1,0,0v-4A0,0,0,0,1,19.75,8.75Z" fill="none" stroke="#fff" stroke-linecap="round" stroke-linejoin="round" stroke-width="1.5"/><path d="M13.75,4.75h0a6,6,0,0,1,6,6v0a6,6,0,0,1-6,6h0a0,0,0,0,1,0,0v-12A0,0,0,0,1,13.75,4.75Z" fill="none" stroke="#fff" stroke-linecap="round" stroke-linejoin="round" stroke-width="1.5"/><rect x="10.75" y="2.75" width="3" height="16" rx="1.5" ry="1.5" fill="none" stroke="#fff" stroke-linecap="round" stroke-linejoin="round" stroke-width="1.5"/><path d="M7.75,11.58a3,3,0,0,1-4-2.83,2.68,2.68,0,0,1,.19-1A3.5,3.5,0,1,1,7.75,4.25a3.3,3.3,0,0,1-.38,1.56,3.07,3.07,0,0,1,.72.25" fill="none" stroke="#fff" stroke-linecap="round" stroke-linejoin="round" stroke-width="1.5"/></svg>