<svg width="12" height="21" viewBox="0 0 12 21" fill="none" xmlns="http://www.w3.org/2000/svg"><path d="M.009 10.688c.042.413.22.804.507 1.118L8.2 20.247c.179.21.4.384.653.512a2.259 2.259 0 0 0 1.658.146c.273-.08.525-.213.742-.388.218-.175.396-.39.523-.63a1.902 1.902 0 0 0 .102-1.565 1.99 1.99 0 0 0-.437-.688L4.945 10.5l6.496-7.134a1.99 1.99 0 0 0 .437-.687 1.902 1.902 0 0 0-.102-1.565 2.032 2.032 0 0 0-.522-.631 2.175 2.175 0 0 0-.743-.389 2.26 2.26 0 0 0-1.658.147A2.11 2.11 0 0 0 8.2.753L.516 9.193a1.98 1.98 0 0 0-.415.7 1.899 1.899 0 0 0-.092.795z" fill="#fff"/></svg>