<svg width="24" height="20" viewBox="0 0 24 20" fill="none" xmlns="http://www.w3.org/2000/svg">
<path d="M4.76777 8.23223C3.79146 7.25592 2.20854 7.25592 1.23223 8.23223C0.255922 9.20854 0.255922 10.7915 1.23223 11.7678L4.76777 8.23223ZM8.5 15.5L6.73223 17.2678L8.5 19.0355L10.2678 17.2678L8.5 15.5ZM23.2678 4.26777C24.2441 3.29146 24.2441 1.70854 23.2678 0.732233C22.2915 -0.244078 20.7085 -0.244078 19.7322 0.732233L23.2678 4.26777ZM1.23223 11.7678L6.73223 17.2678L10.2678 13.7322L4.76777 8.23223L1.23223 11.7678ZM10.2678 17.2678L23.2678 4.26777L19.7322 0.732233L6.73223 13.7322L10.2678 17.2678Z" fill="#8DC63F"/>
</svg>
