<svg xmlns="http://www.w3.org/2000/svg" viewBox="0 0 33.11 41.5"><title>eyedropper</title><path d="M14.72,11.94l6.44,6.45L12.3,27.26a4.56,4.56,0,0,1-4.56,1.13L6,30.08a2.13,2.13,0,1,1-3-3l1.69-1.69A4.36,4.36,0,0,1,4.51,24a4.58,4.58,0,0,1,1.34-3.22Z" fill="none" stroke="#fff" stroke-linecap="round" stroke-linejoin="round" stroke-width="1.5"/><rect x="17.27" y="5.01" width="4.56" height="17.1" rx="2" ry="2" transform="translate(-3.86 17.8) rotate(-45)" fill="none" stroke="#fff" stroke-linecap="round" stroke-linejoin="round" stroke-width="1.5"/><path d="M30.43,2.68a6.55,6.55,0,0,1-4.74,11.18l-1.3,1.31L17.94,8.72l1.3-1.31v-.1A6.55,6.55,0,0,1,30.43,2.68Z" fill="none" stroke="#fff" stroke-linecap="round" stroke-linejoin="round" stroke-width="1.5"/><path d="M13.71,15.77l1.41,1.41-1.41-1.41L12.3,14.36Z" fill="none" stroke="#fff" stroke-linecap="round" stroke-linejoin="round" stroke-width="1.5"/><path d="M8.87,20.61,10.28,22,8.87,20.61,7.46,19.2Z" fill="none" stroke="#fff" stroke-linecap="round" stroke-linejoin="round" stroke-width="1.5"/><path d="M10.89,17.79l1,1-1-1-1-1Z" fill="none" stroke="#fff" stroke-linecap="round" stroke-linejoin="round" stroke-width="1.5"/><path d="M5.31,38.47a2.28,2.28,0,0,1-4.56,0C.75,37.21,3,33.91,3,33.91S5.31,37.21,5.31,38.47Z" fill="none" stroke="#fff" stroke-linecap="round" stroke-linejoin="round" stroke-width="1.5"/></svg>