<svg width="35" height="40" viewBox="0 0 35 40" fill="none" xmlns="http://www.w3.org/2000/svg">
<path d="M32.803 2.16811C30.8782 0.26839 28.8305 -0.0552353 27.451 0.00699758C25.9017 0.0773967 24.3583 0.694586 23.423 1.61752C22.1252 2.89829 22.0103 3.42157 21.9187 4.23609C21.9113 4.30318 21.9036 4.37146 21.8944 4.4425L20.6896 5.63154L20.6541 5.59648C20.0505 5.00076 19.2454 4.6727 18.3871 4.6727C17.529 4.6727 16.7238 5.00076 16.1202 5.59655C14.8702 6.83022 14.8702 8.83759 16.1202 10.0712L16.1532 10.1037L8.4863 17.6705C7.61278 18.5326 7.03321 19.6237 6.81037 20.8259C6.6227 21.8378 6.69696 22.8679 7.02373 23.8325L6.0278 24.8155C4.98308 25.8466 4.98308 27.5243 6.0278 28.5555C6.5324 29.0534 7.20534 29.3277 7.92264 29.3277C8.63995 29.3277 9.31282 29.0534 9.81741 28.5555L10.7941 27.5914C11.4344 27.8099 12.1039 27.9203 12.7909 27.9203C12.791 27.9203 12.7912 27.9203 12.7914 27.9203C14.4216 27.9202 15.9501 27.2976 17.0955 26.1672L24.7624 18.6004L24.7954 18.6329C25.399 19.2287 26.204 19.5568 27.0623 19.5568C27.9205 19.5568 28.7257 19.2286 29.3293 18.6329C30.5792 17.3993 30.5793 15.392 29.3293 14.1583L29.2938 14.1232L30.4985 12.9342C30.5706 12.9252 30.6397 12.9176 30.7077 12.9102C31.533 12.8199 32.0632 12.7063 33.3609 11.4256C34.2961 10.5027 34.9214 8.97937 34.9928 7.45016C35.0563 6.08913 34.7279 4.0679 32.803 2.16811ZM16.0867 25.1716C15.2108 26.0361 14.0404 26.5123 12.7912 26.5123C12.1357 26.5124 11.5014 26.3817 10.9059 26.1237C10.6367 26.0072 10.3227 26.0654 10.1149 26.2706L8.8085 27.5599C8.5734 27.7919 8.25875 27.9197 7.92257 27.9197C7.58631 27.9197 7.27167 27.7919 7.03657 27.5599C6.54802 27.0776 6.54802 26.2932 7.03657 25.811L8.35819 24.5067C8.56398 24.3035 8.62411 23.9974 8.51005 23.7331C7.76892 22.0152 8.16474 19.979 9.49507 18.6661L9.70471 18.4592L11.444 20.1757C11.5834 20.3131 11.7659 20.3819 11.9484 20.3819C12.131 20.3819 12.3135 20.3131 12.4528 20.1757C12.7314 19.9008 12.7314 19.455 12.4528 19.1801L10.7135 17.4635L12.1509 16.0448L13.521 17.397C13.6603 17.5344 13.8428 17.6032 14.0254 17.6032C14.208 17.6032 14.3905 17.5344 14.5298 17.397C14.8083 17.1221 14.8083 16.6763 14.5298 16.4013L13.1596 15.0492L14.597 13.6305L16.3364 15.3472C16.4757 15.4846 16.6583 15.5534 16.8408 15.5534C17.0234 15.5534 17.2059 15.4846 17.3452 15.3472C17.6238 15.0723 17.6238 14.6265 17.3452 14.3515L15.6058 12.6348L17.1617 11.0992L20.4575 14.352L23.7537 17.6049L16.0867 25.1716ZM28.3205 17.6374C27.9863 17.9672 27.5396 18.1489 27.0623 18.1489C26.5852 18.1489 26.1383 17.9672 25.8042 17.6374L17.1289 9.07553C16.7947 8.74578 16.6107 8.30487 16.6108 7.83383C16.6108 7.36286 16.7948 6.92188 17.129 6.59199C17.4631 6.26224 17.9099 6.08061 18.3871 6.08061C18.8643 6.08061 19.3112 6.26224 19.6454 6.59206L28.3206 15.1538C29.0143 15.8386 29.0143 16.9527 28.3205 17.6374ZM33.5677 7.38546C33.5011 8.81294 32.8712 9.91779 32.3521 10.43C31.3452 11.4238 31.1125 11.4493 30.5505 11.5109C30.4046 11.5268 30.2393 11.5449 30.045 11.5767C29.8981 11.6008 29.7625 11.6695 29.6572 11.7734L28.2851 13.1276L21.6985 6.62719L23.0707 5.27285C23.176 5.16887 23.2457 5.03505 23.27 4.89002C23.3022 4.69833 23.3205 4.53521 23.3367 4.39124C23.3991 3.8365 23.4248 3.60686 24.4319 2.6131C24.951 2.10081 26.0704 1.47918 27.5168 1.41343C28.6082 1.36338 30.2375 1.62716 31.7943 3.16369C33.3511 4.7003 33.618 6.30765 33.5677 7.38546Z" fill="white"/>
<path d="M18.8621 15.8483L18.8458 15.8321C18.5678 15.5566 18.1162 15.5557 17.837 15.83C17.5578 16.1043 17.5568 16.5501 17.8348 16.8256L17.8512 16.8418C17.9906 16.98 18.1736 17.0491 18.3566 17.0491C18.5387 17.0491 18.7207 16.9807 18.8599 16.8439C19.1391 16.5696 19.1401 16.1238 18.8621 15.8483Z" fill="white"/>
<path d="M13.9684 20.6759L13.9521 20.6597C13.6735 20.3849 13.222 20.3849 12.9433 20.6597C12.6647 20.9347 12.6647 21.3804 12.9433 21.6554L12.9596 21.6715C13.0989 21.8089 13.2815 21.8777 13.464 21.8777C13.6465 21.8777 13.8291 21.8089 13.9684 21.6715C14.2469 21.3966 14.2469 20.9508 13.9684 20.6759Z" fill="white"/>
<path d="M5.06184 31.1005C4.85493 31.081 4.6505 31.1512 4.50046 31.2921L4.4771 31.3141C3.81361 31.9402 2.8109 32.8865 2.19089 33.9426C1.1412 35.7308 1.68117 36.9881 2.319 37.728C2.82685 38.3171 3.5397 38.685 4.32623 38.7641C5.12676 38.8445 5.90835 38.6178 6.52703 38.1257C6.54786 38.1092 6.56807 38.0927 6.58815 38.076C7.32135 37.4655 8.04758 36.3322 7.34398 34.4002C6.92773 33.2573 6.12644 32.1512 5.59617 31.4193L5.57776 31.3939C5.45706 31.2272 5.26869 31.1201 5.06184 31.1005ZM5.66204 37.0017C5.65012 37.0116 5.63811 37.0214 5.62569 37.0313C5.30098 37.2895 4.88903 37.4082 4.46565 37.3657C4.04977 37.3241 3.67395 37.1307 3.40748 36.8216C2.42669 35.6838 3.53771 34.2324 4.89494 32.884C5.96761 34.4472 6.78612 36.0657 5.66204 37.0017Z" fill="white"/>
</svg>
