<svg xmlns="http://www.w3.org/2000/svg" viewBox="0 0 41.5 41.5"><title>injection</title><path d="M14.21,10.06H30.92a3.14,3.14,0,0,1,3.14,3.14v8.35a3.14,3.14,0,0,1-3.14,3.14H14.21a0,0,0,0,1,0,0V10.06A0,0,0,0,1,14.21,10.06Z" transform="translate(-5.21 22.15) rotate(-45)" fill="none" stroke="#fff" stroke-linecap="round" stroke-linejoin="round" stroke-width="1.5"/><path d="M30.38,6.42h3.22a2,2,0,0,1,2,2v.18a2,2,0,0,1-2,2H30.38a0,0,0,0,1,0,0V6.42A0,0,0,0,1,30.38,6.42Z" transform="translate(3.65 25.82) rotate(-45)" fill="none" stroke="#fff" stroke-linecap="round" stroke-linejoin="round" stroke-width="1.5"/><rect x="6.14" y="28.57" width="9.4" height="4.18" transform="translate(-18.51 16.64) rotate(-45)" fill="none" stroke="#fff" stroke-linecap="round" stroke-linejoin="round" stroke-width="1.5"/><rect x="4.84" y="27.78" width="3.13" height="14.62" rx="1.5" ry="1.5" transform="translate(-22.94 14.81) rotate(-45)" fill="none" stroke="#fff" stroke-linecap="round" stroke-linejoin="round" stroke-width="1.5"/><rect x="13.55" y="14.37" width="4.18" height="22.98" rx="2" ry="2" transform="translate(-13.71 18.63) rotate(-45)" fill="none" stroke="#fff" stroke-linecap="round" stroke-linejoin="round" stroke-width="1.5"/><line x1="40.75" y1="0.75" x2="34.84" y2="6.66" fill="none" stroke="#fff" stroke-linecap="round" stroke-linejoin="round" stroke-width="1.5"/><line x1="34.1" y1="17.74" x2="32.33" y2="15.96" fill="none" stroke="#fff" stroke-linecap="round" stroke-linejoin="round" stroke-width="1.5"/><line x1="25.24" y1="26.6" x2="23.47" y2="24.83" fill="none" stroke="#fff" stroke-linecap="round" stroke-linejoin="round" stroke-width="1.5"/><line x1="31.89" y1="19.95" x2="27.46" y2="15.52" fill="none" stroke="#fff" stroke-linecap="round" stroke-linejoin="round" stroke-width="1.5"/><line x1="29.67" y1="22.17" x2="27.9" y2="20.4" fill="none" stroke="#fff" stroke-linecap="round" stroke-linejoin="round" stroke-width="1.5"/><line x1="27.46" y1="24.38" x2="23.02" y2="19.95" fill="none" stroke="#fff" stroke-linecap="round" stroke-linejoin="round" stroke-width="1.5"/></svg>