<svg xmlns="http://www.w3.org/2000/svg" viewBox="0 0 41.5 41.5"><title>injection</title><path d="M11.951 19.216L23.767 7.4a3.14 3.14 0 0 1 4.44 0l5.905 5.904a3.14 3.14 0 0 1 0 4.44L22.296 29.56 11.951 19.216z" fill="none" stroke="#fff" stroke-linecap="round" stroke-linejoin="round" stroke-width="1.5"/><path d="M29.672 8.878L31.948 6.6a2 2 0 0 1 2.829 0l.127.127a2 2 0 0 1 0 2.829l-2.277 2.276-2.955-2.955zM6.034 32.5l6.646-6.646 2.956 2.955-6.647 6.647z" fill="none" stroke="#fff" stroke-linecap="round" stroke-linejoin="round" stroke-width="1.5"/><rect x="4.84" y="27.78" width="3.13" height="14.62" rx="1.5" ry="1.5" transform="rotate(-45 6.407 35.096)" fill="none" stroke="#fff" stroke-linecap="round" stroke-linejoin="round" stroke-width="1.5"/><rect x="13.55" y="14.37" width="4.18" height="22.98" rx="2" ry="2" transform="rotate(-45 15.633 25.864)" fill="none" stroke="#fff" stroke-linecap="round" stroke-linejoin="round" stroke-width="1.5"/><path fill="none" stroke="#fff" stroke-linecap="round" stroke-linejoin="round" stroke-width="1.5" d="M40.75.75l-5.91 5.91M34.1 17.74l-1.77-1.78M25.24 26.6l-1.77-1.77M31.89 19.95l-4.43-4.43M29.67 22.17L27.9 20.4M27.46 24.38l-4.44-4.43"/></svg>