<svg width="40" height="40" viewBox="0 0 40 40" fill="none" xmlns="http://www.w3.org/2000/svg">
<path d="M39.7712 0.228813C39.4661 -0.0762709 38.9714 -0.0762709 38.6663 0.228813L33.429 5.46633C33.1116 5.31328 32.7607 5.23218 32.397 5.23218C31.7619 5.23218 31.166 5.47836 30.7191 5.92524L29.0206 7.62379L28.3807 6.98386C27.568 6.17119 26.4837 5.7236 25.3276 5.7236C24.1713 5.7236 23.0879 6.17142 22.2769 6.98456L11.6003 17.688L10.226 16.3138C9.75939 15.8471 9.13721 15.5901 8.47408 15.5901C7.81088 15.5901 7.18869 15.8471 6.72205 16.3138C5.75604 17.2799 5.75604 18.8518 6.72213 19.8178L11.4931 24.5889L5.83057 30.2517L3.71002 28.1311C3.30049 27.7217 2.75455 27.4961 2.17283 27.4961C1.59111 27.4961 1.04518 27.7217 0.635566 28.1312C-0.211855 28.9788 -0.211855 30.358 0.635566 31.2055L8.79494 39.365C9.20447 39.7745 9.75041 40 10.3321 40C10.9138 40 11.4598 39.7744 11.8693 39.3649C12.7169 38.5173 12.7169 37.1382 11.8693 36.2906L9.74877 34.17L15.4114 28.5072L20.1825 33.2784C20.6492 33.745 21.2713 34.0021 21.9345 34.0021C22.5976 34.0021 23.2199 33.745 23.6865 33.2784C24.1531 32.8117 24.4102 32.1895 24.4102 31.5263C24.4102 30.8631 24.1531 30.2409 23.6865 29.7743L22.3123 28.4L33.0156 17.7232C33.0159 17.723 33.0161 17.7227 33.0163 17.7225C33.0171 17.7218 33.0176 17.7211 33.0183 17.7204C33.8289 16.9103 34.2759 15.8289 34.2766 14.6752C34.2773 13.518 33.8297 12.4327 33.0163 11.6193L32.3763 10.9794L34.0749 9.28085C34.8066 8.5492 34.959 7.45488 34.5335 6.57143L39.7712 1.33352C40.0763 1.02859 40.0763 0.533896 39.7712 0.228813ZM10.7645 37.3955C11.0028 37.6339 11.0028 38.0218 10.7644 38.2603C10.6501 38.3747 10.4966 38.4376 10.3322 38.4376C10.1678 38.4376 10.0142 38.3746 9.89986 38.2602L1.74057 30.1008C1.50221 29.8623 1.50221 29.4743 1.74049 29.2361C1.85486 29.1216 2.00846 29.0586 2.17291 29.0586C2.33736 29.0586 2.49088 29.1216 2.60525 29.2361L10.7645 37.3955ZM8.64416 33.0653L6.93533 31.3565L12.598 25.6937L14.3068 27.4025L8.64416 33.0653ZM32.7142 14.6743C32.7138 15.1413 32.5992 15.589 32.3842 15.9857L31.1946 14.7962C30.8895 14.4911 30.3948 14.4911 30.0897 14.7962C29.7846 15.1013 29.7846 15.596 30.0897 15.901L31.3583 17.1696L30.2131 18.312L27.1244 15.2232C26.8193 14.9181 26.3246 14.9181 26.0196 15.2232C25.7145 15.5283 25.7145 16.023 26.0196 16.3281L29.1069 19.4156L27.9617 20.5579L26.6974 19.2936C26.3923 18.9885 25.8977 18.9885 25.5925 19.2936C25.2874 19.5987 25.2874 20.0934 25.5925 20.3985L26.8554 21.6614L25.7102 22.8038L22.6269 19.7205C22.3218 19.4155 21.8271 19.4154 21.522 19.7205C21.217 20.0256 21.217 20.5203 21.5221 20.8254L24.604 23.9072L23.4587 25.0497L22.2001 23.7908C21.895 23.4857 21.4004 23.4857 21.0953 23.7908C20.7902 24.0959 20.7902 24.5906 21.0953 24.8957L22.3527 26.1531L21.2074 27.2956L18.1299 24.2179C17.8248 23.9128 17.3302 23.9128 17.025 24.2179C16.7199 24.523 16.7199 25.0177 17.025 25.3228L20.6528 28.9506C20.6533 28.951 20.6538 28.9517 20.6543 28.9522L22.5817 30.8795C22.7531 31.0511 22.8476 31.2809 22.8476 31.5267C22.8477 31.7726 22.7532 32.0024 22.5817 32.1739C22.4101 32.3455 22.1803 32.4399 21.9345 32.4399C21.6887 32.4399 21.4589 32.3455 21.2874 32.1739L7.82697 18.7131C7.47018 18.3562 7.47018 17.7755 7.82697 17.4186C7.99846 17.2471 8.2283 17.1526 8.47408 17.1526C8.71986 17.1526 8.94971 17.2471 9.12127 17.4186L11.0485 19.346C11.195 19.4924 11.3938 19.5748 11.601 19.5748C11.6011 19.5748 11.6013 19.5748 11.6014 19.5748C11.8088 19.5746 12.0076 19.4921 12.154 19.3453L23.3832 8.08802C23.8991 7.5709 24.5897 7.28605 25.3278 7.28605C26.0667 7.28605 26.7586 7.57105 27.2762 8.08864L31.9117 12.7243C32.4296 13.2424 32.7146 13.9349 32.7142 14.6743ZM32.9701 8.17622L31.2715 9.87469L30.1256 8.72873L31.8241 7.03019C31.9759 6.87839 32.1793 6.79479 32.397 6.79479C32.6148 6.79479 32.8183 6.87839 32.9701 7.03019C33.286 7.34613 33.286 7.86028 32.9701 8.17622Z" fill="white"/>
<path d="M25.4813 13.58L25.4633 13.5621C25.1576 13.2577 24.663 13.2588 24.3585 13.5645C24.054 13.8702 24.0551 14.3649 24.3608 14.6693L24.3788 14.6872C24.5313 14.839 24.7307 14.9149 24.9301 14.9149C25.1305 14.9149 25.331 14.8382 25.4837 14.6849C25.7881 14.379 25.787 13.8845 25.4813 13.58Z" fill="white"/>
<path d="M20.9852 18.0785L20.9673 18.0606C20.6622 17.7555 20.1676 17.7555 19.8625 18.0606C19.5574 18.3657 19.5574 18.8604 19.8625 19.1655L19.8804 19.1834C20.0329 19.3359 20.2329 19.4122 20.4328 19.4122C20.6327 19.4122 20.8326 19.3359 20.9852 19.1834C21.2903 18.8783 21.2903 18.3836 20.9852 18.0785Z" fill="white"/>
<path d="M16.4887 22.5764L16.4707 22.5584C16.1659 22.253 15.6713 22.2524 15.3659 22.5572C15.0605 22.862 15.0599 23.3567 15.3647 23.6621L15.3826 23.68C15.5352 23.833 15.7354 23.9094 15.9356 23.9094C16.1353 23.9094 16.335 23.8334 16.4875 23.6812C16.7929 23.3765 16.7934 22.8818 16.4887 22.5764Z" fill="white"/>
</svg>
