<svg width="44" height="34" viewBox="0 0 44 34" fill="none" xmlns="http://www.w3.org/2000/svg">
<path d="M27.4686 31.2421C27.2823 31.2516 27.1001 31.1864 26.9635 31.0613C26.6953 30.7823 26.6953 30.3456 26.9635 30.0666L30.5451 26.5401C30.7799 26.2779 31.1861 26.2528 31.4524 26.4841C31.4726 26.5015 31.4916 26.5203 31.5094 26.5401C31.7776 26.8191 31.7776 27.2558 31.5094 27.5348L27.9278 31.0613C27.8054 31.1794 27.6401 31.2446 27.4686 31.2421Z" fill="white"/>
<path d="M15.9892 21.7023C15.7973 21.6949 15.616 21.6137 15.4841 21.4763L10.3872 16.5031C10.14 16.2162 10.14 15.7953 10.3872 15.5085L15.4841 10.5352C15.7189 10.273 16.1251 10.2479 16.3914 10.4792C16.4116 10.4967 16.4306 10.5154 16.4484 10.5352L21.5453 15.5085C21.8135 15.7874 21.8135 16.2241 21.5453 16.5031L16.4484 21.4763C16.3338 21.6111 16.1675 21.6931 15.9892 21.7023ZM11.8566 16.0058L15.9892 20.0748L20.0758 16.0058L15.9892 11.9368L11.8566 16.0058Z" fill="white"/>
<path d="M14.5665 17.8589C14.3747 17.8515 14.1933 17.7703 14.0614 17.6329C13.7951 17.4017 13.7696 17.0017 14.0045 16.7395C14.0222 16.7197 14.0413 16.7009 14.0614 16.6834L16.4032 14.3776C16.7075 14.1529 17.1393 14.2136 17.3675 14.5132C17.5512 14.7543 17.5512 15.0859 17.3675 15.327L15.0257 17.6328C14.9052 17.7601 14.7422 17.8404 14.5665 17.8589Z" fill="white"/>
<path d="M16.9085 17.8599C16.7167 17.8525 16.5354 17.7713 16.4034 17.6339L14.0616 15.3281C13.8334 15.0285 13.8951 14.6033 14.1993 14.3787C14.4442 14.1978 14.781 14.1978 15.0259 14.3787L17.3677 16.6845C17.6302 16.9481 17.6302 17.3702 17.3677 17.6339C17.2531 17.7687 17.0869 17.8506 16.9085 17.8599Z" fill="white"/>
<path d="M28.3875 18.1758C28.3875 18.0854 28.3875 18.0402 28.3416 17.995C28.329 17.9273 28.2972 17.8646 28.2497 17.8141L13.051 0.226988C12.9306 0.0745101 12.7418 -0.0100367 12.5459 0.000953525C12.3595 -0.00856556 12.1774 0.0566835 12.0408 0.181816L0.194013 11.8462C0.0415249 11.9836 -0.0279075 12.1888 0.0103243 12.3887C0.00654502 12.5675 0.0924128 12.7366 0.239891 12.8408L18.0559 27.8058L18.2396 27.8962H18.4692L24.6681 28.3483H24.714C24.9003 28.3578 25.0825 28.2925 25.219 28.1674L28.6629 24.8218C28.7972 24.6735 28.8636 24.4773 28.8466 24.2793L28.3875 18.1758ZM1.70931 12.2984L12.5 1.67372L13.2347 2.48751L2.53582 13.0218L1.70931 12.2984ZM14.1071 3.52743L26.7804 18.1758L18.4693 26.359L3.59198 13.8807L14.1071 3.52743ZM24.4845 27.0372L20.0764 26.7208L27.1477 19.7582L27.4691 24.0985L24.4845 27.0372Z" fill="white"/>
<path d="M26.0461 29.8859C25.8677 29.8766 25.7015 29.7947 25.5869 29.6598C25.3206 29.4286 25.2951 29.0286 25.53 28.7664C25.5477 28.7466 25.5668 28.7278 25.5869 28.7104L29.1685 25.1839C29.3968 24.8843 29.8285 24.8235 30.1327 25.0483C30.437 25.273 30.4987 25.6981 30.2705 25.9977C30.2313 26.0491 30.1849 26.0948 30.1327 26.1333L26.5512 29.6598C26.4193 29.7973 26.238 29.8784 26.0461 29.8859Z" fill="white"/>
<path d="M32.8872 32.2813C31.7322 32.2312 30.6163 31.8545 29.673 31.1962C29.3921 30.9619 29.3156 30.5663 29.4894 30.2468C29.7029 29.9371 30.1212 29.8391 30.4536 30.0207C31.6015 30.7894 32.6577 31.0606 33.4842 30.8345C34.3107 30.6085 34.5862 30.2016 35.0913 29.6138C35.6686 28.8575 36.4254 28.2521 37.2954 27.8506C38.627 27.3081 40.2342 27.3985 42.0709 28.0766C42.4119 28.2395 42.571 28.6312 42.4382 28.9808C42.2909 29.3102 41.908 29.469 41.5658 29.3425C40.0505 28.8 38.8107 28.7096 37.8005 29.1165C37.1452 29.4288 36.5776 29.8945 36.1475 30.4728C35.5505 31.1057 34.9536 31.8291 33.8516 32.1457C33.5381 32.2351 33.2136 32.2807 32.8872 32.2813Z" fill="white"/>
<path d="M8.73433 13.7905C8.54247 13.7831 8.36116 13.7019 8.22924 13.5645C7.97901 13.2886 7.99949 12.8662 8.27511 12.6151L12.9128 8.36523C13.2153 8.13452 13.6429 8.15365 13.923 8.4104C14.1732 8.68628 14.1527 9.10867 13.8771 9.3598L9.19347 13.6096C9.07807 13.7381 8.90783 13.805 8.73433 13.7905Z" fill="white"/>
</svg>
