<svg width="35" height="36" viewBox="0 0 35 36" fill="none" xmlns="http://www.w3.org/2000/svg">
<path d="M30.4998 20.1747C28.9335 17.6546 26.5016 14.6974 23.6521 11.8479C20.8027 8.99847 17.8456 6.56662 15.3254 5.00032C12.3312 3.1393 10.3013 2.70488 9.29178 3.70872C9.29055 3.70995 9.28921 3.71079 9.28804 3.71196L3.21196 9.78804C2.20178 10.7982 2.63274 12.828 4.49287 15.8208C6.0562 18.3362 8.49071 21.295 11.3477 24.152C14.2047 27.009 17.1635 29.4435 19.6789 31.0068C22.6718 32.867 24.7015 33.2979 25.7117 32.2877L31.7835 26.2159C31.785 26.2147 31.7866 26.2134 31.7881 26.212C32.7964 25.2037 32.363 23.1723 30.4998 20.1747ZM14.4707 6.77469C16.8116 8.2297 19.5868 10.517 22.285 13.2152C24.9833 15.9135 27.2706 18.6887 28.7256 21.0296C30.2722 23.5181 30.1954 24.4528 30.1153 24.5377C30.115 24.538 30.1147 24.5382 30.1144 24.5384L30.1132 24.5396C30.0264 24.6196 29.0911 24.6943 26.6057 23.1496C24.2647 21.6946 21.4896 19.4073 18.7912 16.709C16.093 14.0107 13.8057 11.2355 12.3507 8.89464C10.7997 6.39921 10.8814 5.46605 10.9617 5.38573C11.042 5.30541 11.9752 5.22368 14.4707 6.77469ZM24.0385 30.6145C23.9408 30.7118 23.0109 30.7723 20.5338 29.2328C18.1976 27.7807 15.4208 25.4909 12.715 22.785C10.009 20.0791 7.71923 17.3025 6.26725 14.9662C4.72765 12.4892 4.78819 11.5592 4.88566 11.4617L9.21366 7.13374C9.51669 7.90228 9.97049 8.77442 10.5765 9.74941C12.1428 12.2696 14.5746 15.2267 17.4241 18.0761C20.2735 20.9256 23.2307 23.3575 25.7509 24.9238C26.7258 25.5297 27.5977 25.9834 28.3663 26.2865L26.6604 27.9924C24.9745 27.2772 23.0838 26.1726 21.1484 24.7678C20.6226 24.3861 19.9676 24.4487 19.6852 24.9075C19.4364 25.3118 19.5599 25.8887 19.9525 26.2813C20.0055 26.3342 20.0634 26.3838 20.1258 26.4291C21.853 27.6829 23.5624 28.7224 25.1576 29.4954L24.0385 30.6145Z" fill="white" stroke="#2E3192" stroke-width="0.9"/>
<path d="M18.7347 24.1511C19.0644 23.7297 18.9293 23.0465 18.431 22.6232L18.4107 22.6058C17.9151 22.1813 17.2439 22.1773 16.9116 22.5967C16.5987 22.9916 16.698 23.6213 17.1245 24.0478C17.1509 24.0741 17.1787 24.0999 17.2075 24.1246L17.2372 24.15C17.7346 24.5722 18.4051 24.5728 18.7347 24.1511Z" fill="white" stroke="#2E3192" stroke-width="0.9"/>
</svg>
