<svg width="27" height="34" viewBox="0 0 27 34" fill="none" xmlns="http://www.w3.org/2000/svg">
<path d="M26.714 6.03136C26.1406 3.92441 24.7718 2.16726 22.86 1.08363C21.6092 0.374729 20.1847 0 18.7405 0C15.7762 0 13.02 1.55542 11.5476 4.05928L6.32921 12.9325C6.32872 12.9333 6.32814 12.934 6.32765 12.9348C6.32715 12.9356 6.32682 12.9365 6.32633 12.9373L1.1078 21.8108C-1.17533 25.6931 0.18459 30.6751 4.13917 32.9165C5.38975 33.6254 6.81407 34 8.2581 34C10.9616 34 13.4991 32.7151 15.0458 30.563C15.06 30.5433 15.0733 30.5229 15.0856 30.5021L25.8908 12.1905C26.9939 10.321 27.2862 8.13377 26.714 6.03136ZM13.6776 29.6582C12.4375 31.3638 10.4143 32.381 8.2581 32.381C7.10318 32.381 5.964 32.0813 4.96377 31.5144C1.79667 29.7193 0.70763 25.7294 2.53608 22.6202L7.34371 14.4454L9.12863 15.457C9.12879 15.4571 9.12887 15.4573 9.12904 15.4573C9.12912 15.4574 9.12929 15.4574 9.12937 15.4575L18.8169 20.9485L13.6776 29.6582ZM24.4637 11.3788L19.6434 19.5477L10.6676 14.4601L12.9745 10.5375C13.2022 10.1503 13.0671 9.65519 12.6727 9.43168C12.2783 9.20809 11.774 9.34077 11.5463 9.72797L9.23945 13.6506L8.16822 13.0435L12.9757 4.86888C14.1546 2.86426 16.3635 1.61905 18.7405 1.61905C19.8956 1.61905 21.035 1.91873 22.0354 2.4858C23.5654 3.35297 24.6612 4.76065 25.1207 6.44931C25.579 8.13345 25.3457 9.88412 24.4637 11.3788Z" fill="white"/>
</svg>
