<svg xmlns="http://www.w3.org/2000/svg" viewBox="0 0 23.04 41.5"><title>spray</title><rect x="7.93" y="11.01" width="14.36" height="29.74" rx="2.54" ry="2.54" fill="none" stroke="#fff" stroke-linecap="round" stroke-linejoin="round" stroke-width="1.5"/><path d="M7.93 16.13h6.6a1.61 1.61 0 0 1 1.61 1.61V32a1.61 1.61 0 0 1-1.61 1.61h-6.6V16.13zM12.03 7.93h6.15v3.08h-6.15zM13.06 2.8h4.1v5.13h-4.1zM3.83 4.85zM9.98 4.85zM.75 4.85zM19.21 27.42zM19.21 24.34zM4.85.75l1.33.77 1.34.77-1.34-.77zM4.85 9l1.33-.77 1.34-.77-1.34.77z" fill="none" stroke="#fff" stroke-linecap="round" stroke-linejoin="round" stroke-width="1.5"/></svg>