<svg xmlns="http://www.w3.org/2000/svg" viewBox="0 0 23.04 41.5"><title>spray</title><rect x="7.93" y="11.01" width="14.36" height="29.74" rx="2.54" ry="2.54" fill="none" stroke="#fff" stroke-linecap="round" stroke-linejoin="round" stroke-width="1.5"/><path d="M7.93,16.13h6.6a1.61,1.61,0,0,1,1.61,1.61V32a1.61,1.61,0,0,1-1.61,1.61H7.93a0,0,0,0,1,0,0V16.13A0,0,0,0,1,7.93,16.13Z" fill="none" stroke="#fff" stroke-linecap="round" stroke-linejoin="round" stroke-width="1.5"/><rect x="12.03" y="7.93" width="6.15" height="3.08" fill="none" stroke="#fff" stroke-linecap="round" stroke-linejoin="round" stroke-width="1.5"/><rect x="13.06" y="2.8" width="4.1" height="5.13" fill="none" stroke="#fff" stroke-linecap="round" stroke-linejoin="round" stroke-width="1.5"/><path d="M3.83,4.85h0Z" fill="none" stroke="#fff" stroke-linecap="round" stroke-linejoin="round" stroke-width="1.5"/><polygon points="9.98 4.85 9.98 4.85 9.98 4.85 9.98 4.85 9.98 4.85" fill="none" stroke="#fff" stroke-linecap="round" stroke-linejoin="round" stroke-width="1.5"/><polygon points="0.75 4.85 0.75 4.85 0.75 4.85 0.75 4.85 0.75 4.85" fill="none" stroke="#fff" stroke-linecap="round" stroke-linejoin="round" stroke-width="1.5"/><path d="M19.21,27.42v0Z" fill="none" stroke="#fff" stroke-linecap="round" stroke-linejoin="round" stroke-width="1.5"/><polygon points="19.21 24.34 19.21 24.34 19.21 24.34 19.21 24.34 19.21 24.34" fill="none" stroke="#fff" stroke-linecap="round" stroke-linejoin="round" stroke-width="1.5"/><path d="M4.85.75l1.33.77,1.34.77L6.18,1.52Z" fill="none" stroke="#fff" stroke-linecap="round" stroke-linejoin="round" stroke-width="1.5"/><path d="M4.85,9l1.33-.77,1.34-.77-1.34.77Z" fill="none" stroke="#fff" stroke-linecap="round" stroke-linejoin="round" stroke-width="1.5"/></svg>