<svg width="23" height="40" viewBox="0 0 23 40" fill="none" xmlns="http://www.w3.org/2000/svg">
<path d="M18.036 9.35003V7.10949C18.036 6.73332 17.7725 6.41941 17.4216 6.34511V2.89075C17.4216 2.45934 17.075 2.1095 16.6475 2.1095H12.9319C12.5044 2.1095 12.1578 2.45934 12.1578 2.89075V6.34511C11.807 6.41941 11.5434 6.73339 11.5434 7.10949V9.3512C8.74979 9.73394 6.58923 12.1555 6.58923 15.0782V36.0938C6.58923 38.2477 8.32552 40 10.4597 40H19.1295C21.2636 40 22.9999 38.2477 22.9999 36.0938V15.0782C23 12.1521 20.8343 9.72847 18.036 9.35003ZM13.706 3.67199H15.8734V6.32824H13.706V3.67199ZM13.0917 7.89074H16.4878V9.29698H13.0917V7.89074ZM8.13749 18.7501H13.8559C14.2828 18.7501 14.63 19.1006 14.63 19.5313V32.0313C14.63 32.4621 14.2828 32.8126 13.8559 32.8126H8.13749V18.7501ZM21.4518 36.0938C21.4518 37.3862 20.4101 38.4376 19.1296 38.4376H10.4598C9.17926 38.4376 8.13749 37.3862 8.13749 36.0938V34.3751H13.8559C15.1364 34.3751 16.1782 33.3237 16.1782 32.0313V19.5313C16.1782 18.239 15.1364 17.1876 13.8559 17.1876H8.13749V15.0782C8.13749 12.7521 10.0127 10.8595 12.3176 10.8595H17.2619H17.2717C19.5766 10.8595 21.4518 12.7521 21.4518 15.0782V36.0938Z" fill="white"/>
<path d="M7.07818 4.23181H3.70988C3.28243 4.23181 2.93579 4.58165 2.93579 5.01306C2.93579 5.44447 3.28243 5.79431 3.70988 5.79431H7.07818C7.50571 5.79431 7.85226 5.44454 7.85226 5.01306C7.85226 4.58165 7.50563 4.23181 7.07818 4.23181Z" fill="white"/>
<path d="M10.3551 4.46096C10.2111 4.31487 10.0114 4.23206 9.80778 4.23206C9.6042 4.23206 9.40448 4.31487 9.2605 4.46096C9.1166 4.60627 9.03369 4.80713 9.03369 5.0133C9.03369 5.21877 9.11652 5.42033 9.2605 5.56565C9.40448 5.71096 9.6042 5.79455 9.80778 5.79455C10.0114 5.79455 10.2111 5.71096 10.3551 5.56565C10.499 5.41955 10.5819 5.21877 10.5819 5.0133C10.5819 4.80784 10.499 4.60627 10.3551 4.46096Z" fill="white"/>
<path d="M1.32137 4.46018C1.17739 4.31487 0.977675 4.23206 0.774089 4.23206C0.570504 4.23206 0.370789 4.31487 0.226886 4.46018C0.0821309 4.60627 0 4.80784 0 5.0133C0 5.21877 0.0821309 5.41955 0.226886 5.56565C0.370789 5.71088 0.570504 5.79455 0.774089 5.79455C0.977675 5.79455 1.17662 5.71096 1.32137 5.56565C1.46535 5.42033 1.54818 5.21877 1.54818 5.0133C1.54818 4.80705 1.46543 4.60627 1.32137 4.46018Z" fill="white"/>
<path d="M8.38126 7.11947C8.17241 6.74306 7.70045 6.60892 7.32764 6.81978L4.24414 8.56329C3.87118 8.77415 3.73819 9.25024 3.94719 9.62665C4.08909 9.88227 4.35212 10.0262 4.62313 10.0262C4.75116 10.0262 4.88113 9.99399 5.00081 9.92634L8.08432 8.18282C8.45735 7.97196 8.59026 7.49595 8.38126 7.11947Z" fill="white"/>
<path d="M8.08421 1.84341L5.0007 0.0998938C4.62806 -0.111121 4.15609 0.0230971 3.94709 0.399581C3.73808 0.775986 3.871 1.25208 4.24403 1.46294L7.32754 3.20645C7.44721 3.27418 7.5771 3.30629 7.70522 3.30629C7.97622 3.30629 8.23926 3.16239 8.38115 2.90676C8.59016 2.53036 8.45717 2.05427 8.08421 1.84341Z" fill="white"/>
<path d="M18.8101 22.4218C18.3826 22.4218 18.036 22.7716 18.036 23.203V29.1381C18.036 29.5695 18.3826 29.9193 18.8101 29.9193C19.2376 29.9193 19.5842 29.5695 19.5842 29.1381V23.203C19.5842 22.7716 19.2376 22.4218 18.8101 22.4218Z" fill="white"/>
<path d="M19.3576 19.9164C19.2136 19.7711 19.0139 19.6875 18.8103 19.6875C18.606 19.6875 18.407 19.771 18.2631 19.9164C18.1184 20.0617 18.0363 20.2633 18.0363 20.4687C18.0363 20.6742 18.1184 20.8758 18.2631 21.021C18.407 21.1663 18.6061 21.25 18.8103 21.25C19.0139 21.25 19.2136 21.1664 19.3576 21.021C19.5016 20.8758 19.5844 20.6742 19.5844 20.4687C19.5844 20.2633 19.5017 20.0617 19.3576 19.9164Z" fill="white"/>
</svg>
