<svg xmlns="http://www.w3.org/2000/svg" viewBox="0 0 36.27 41.5"><title>syrup</title><path d="M32.29,40.75H26.21a1.58,1.58,0,0,1-1.57-1.37L23,27.55a1.59,1.59,0,0,1,1.57-1.8h9.36a1.59,1.59,0,0,1,1.57,1.8L33.86,39.38A1.58,1.58,0,0,1,32.29,40.75Z" fill="none" stroke="#fff" stroke-linecap="round" stroke-linejoin="round" stroke-width="1.5"/><path d="M30.75,29.75h0Z" fill="none" stroke="#fff" stroke-linecap="round" stroke-linejoin="round" stroke-width="1.5"/><path d="M18.88,15.06l-4.13-3.31h-9L1.62,15.06a2.29,2.29,0,0,0-.87,1.8V38.07a2.68,2.68,0,0,0,2.68,2.68H17.07a2.68,2.68,0,0,0,2.68-2.68V16.86A2.29,2.29,0,0,0,18.88,15.06Z" fill="none" stroke="#fff" stroke-linecap="round" stroke-linejoin="round" stroke-width="1.5"/><rect x="5.75" y="8.75" width="9" height="3" fill="none" stroke="#fff" stroke-linecap="round" stroke-linejoin="round" stroke-width="1.5"/><rect x="3.75" y="0.75" width="13" height="8" rx="1.1" ry="1.1" fill="none" stroke="#fff" stroke-linecap="round" stroke-linejoin="round" stroke-width="1.5"/><rect x="3.75" y="21.75" width="13" height="10" rx="1.1" ry="1.1" fill="none" stroke="#fff" stroke-linecap="round" stroke-linejoin="round" stroke-width="1.5"/></svg>