<svg width="39" height="42" viewBox="0 0 39 42" fill="none" xmlns="http://www.w3.org/2000/svg">
<path d="M23.6179 26.8435L23.6179 26.8435C23.5697 26.5084 23.6676 26.169 23.8867 25.9126C24.1058 25.6561 24.4238 25.5089 24.7591 25.5089H36.8937C37.2291 25.5089 37.547 25.6561 37.7661 25.9126M23.6179 26.8435L37.7304 25.9431M23.6179 26.8435L25.41 39.3L25.4565 39.2934M23.6179 26.8435L25.4565 39.2934M37.7661 25.9126L37.7304 25.9431M37.7661 25.9126C37.7661 25.9126 37.7661 25.9126 37.7661 25.9126L37.7304 25.9431M37.7661 25.9126C37.9853 26.169 38.0832 26.5084 38.035 26.8435L36.2428 39.3001C36.0995 40.2957 35.242 41.047 34.2467 41.047H27.4062C26.411 41.047 25.5534 40.2957 25.41 39.3001L25.4565 39.2934M37.7304 25.9431C37.9407 26.1892 38.0348 26.515 37.9885 26.8368L36.1963 39.2934C36.0563 40.2663 35.2182 41 34.2467 41H27.4062C26.4348 41 25.5966 40.2663 25.4565 39.2934M36.7751 26.7788L36.5104 28.6187H29.5827C29.2355 28.6187 28.9548 28.9036 28.9548 29.2537C28.9548 29.6037 29.2355 29.8886 29.5827 29.8886H36.3277L34.9999 39.1173C34.9458 39.4937 34.6214 39.7771 34.2467 39.7771H27.4062C27.0314 39.7771 26.707 39.4937 26.6529 39.1173L25.3251 29.8886H26.8329C27.1801 29.8886 27.4608 29.6037 27.4608 29.2537C27.4608 28.9036 27.1801 28.6187 26.8329 28.6187H25.1424L24.8777 26.7788H36.7751Z" fill="white" stroke="white" stroke-width="0.0939459"/>
<path d="M20.9169 37.8077V37.8248C20.9078 38.817 20.1076 39.6204 19.1265 39.6204H3.99928C3.01262 39.6204 2.20886 38.8077 2.20886 37.8077V16.8893C2.20886 16.2984 2.48562 15.7308 2.94878 15.3714L7.69409 11.6891H15.4316L20.177 15.3714C20.6401 15.7307 20.9169 16.2983 20.9169 16.8893V37.8077ZM20.9416 14.3639L16.2728 10.741V9.50037C17.204 9.41535 17.9353 8.62174 17.9353 7.65876V2.80266C17.9353 1.78327 17.1158 0.953027 16.1073 0.953027H7.01864C6.00997 0.953027 5.19054 1.78327 5.19054 2.80266V7.65876C5.19054 8.62174 5.92193 9.41535 6.85302 9.50037V10.741L2.18419 14.3639C1.41306 14.9623 0.953027 15.9063 0.953027 16.8893V37.8077C0.953027 39.5069 2.31898 40.8902 3.99928 40.8902H19.1265C20.8068 40.8902 22.1727 39.5069 22.1727 37.8077V16.8893C22.1728 15.9063 21.7127 14.9623 20.9416 14.3639ZM6.44638 7.65876V2.80266C6.44638 2.48244 6.70361 2.22291 7.01864 2.22291H16.1073C16.4222 2.22291 16.6794 2.48244 16.6794 2.80266V7.65876C16.6794 7.97891 16.4222 8.23851 16.1073 8.23851H7.01864C6.70361 8.23851 6.44638 7.97898 6.44638 7.65876ZM15.017 9.5084V10.4191H8.10885V9.5084H15.017Z" fill="white" stroke="white" stroke-width="0.0939459"/>
<path d="M17.1547 21.0747H10.1145C9.76718 21.0747 9.48655 21.3595 9.48655 21.7096C9.48655 22.0597 9.76718 22.3446 10.1145 22.3446H17.1378V30.7171H5.98792V22.3445H7.40342C7.7507 22.3445 8.03133 22.0596 8.03133 21.7096C8.03133 21.3595 7.7507 21.0746 7.40342 21.0746H5.97112C5.28737 21.0746 4.73208 21.6373 4.73208 22.3281V30.7334C4.73208 31.424 5.28728 31.9869 5.97112 31.9869H17.1547C17.8384 31.9869 18.3936 31.4241 18.3936 30.7334V22.3281C18.3936 21.6374 17.8384 21.0747 17.1547 21.0747Z" fill="white" stroke="white" stroke-width="0.0939459"/>
</svg>
