<svg xmlns="http://www.w3.org/2000/svg" viewBox="0 0 36.27 41.5"><title>syrup</title><path d="M32.29 40.75h-6.08a1.58 1.58 0 0 1-1.57-1.37L23 27.55a1.59 1.59 0 0 1 1.57-1.8h9.36a1.59 1.59 0 0 1 1.57 1.8l-1.64 11.83a1.58 1.58 0 0 1-1.57 1.37zM30.75 29.75zM18.88 15.06l-4.13-3.31h-9l-4.13 3.31a2.29 2.29 0 0 0-.87 1.8v21.21a2.68 2.68 0 0 0 2.68 2.68h13.64a2.68 2.68 0 0 0 2.68-2.68V16.86a2.29 2.29 0 0 0-.87-1.8zM5.75 8.75h9v3h-9z" fill="none" stroke="#fff" stroke-linecap="round" stroke-linejoin="round" stroke-width="1.5"/><rect x="3.75" y=".75" width="13" height="8" rx="1.1" ry="1.1" fill="none" stroke="#fff" stroke-linecap="round" stroke-linejoin="round" stroke-width="1.5"/><rect x="3.75" y="21.75" width="13" height="10" rx="1.1" ry="1.1" fill="none" stroke="#fff" stroke-linecap="round" stroke-linejoin="round" stroke-width="1.5"/></svg>